<?xml version="1.0" encoding="UTF-8" standalone="no"?>
<!-- Created with Inkscape (http://www.inkscape.org/) -->

<svg
   xmlns:dc="http://purl.org/dc/elements/1.1/"
   xmlns:cc="http://creativecommons.org/ns#"
   xmlns:rdf="http://www.w3.org/1999/02/22-rdf-syntax-ns#"
   xmlns:svg="http://www.w3.org/2000/svg"
   xmlns="http://www.w3.org/2000/svg"
   xmlns:sodipodi="http://sodipodi.sourceforge.net/DTD/sodipodi-0.dtd"
   xmlns:inkscape="http://www.inkscape.org/namespaces/inkscape"
   id="svg2"
   version="1.1"
   inkscape:version="0.91 r13725"
   sodipodi:docname="background.svg">
  <defs
     id="defs4">
    <clipPath
       id="clipPath3350"
       clipPathUnits="userSpaceOnUse">
      <path
         inkscape:connector-curvature="0"
         id="path3352"
         d="m 0,841.98 595.2,0 0,-841.87 -595.2,0 0,841.87 z" />
    </clipPath>
    <clipPath
       id="clipPath3372"
       clipPathUnits="userSpaceOnUse">
      <path
         inkscape:connector-curvature="0"
         id="path3374"
         d="m 547.795,1.386 -491.811,0 0,8.312 491.811,33.19 0,-41.502" />
    </clipPath>
    <clipPath
       id="clipPath3384"
       clipPathUnits="userSpaceOnUse">
      <path
         inkscape:connector-curvature="0"
         id="path3386"
         d="m 513.251,197.042 -457.92,0 0,-187.776 457.92,0 0,187.776 z" />
    </clipPath>
    <clipPath
       id="clipPath3390"
       clipPathUnits="userSpaceOnUse">
      <path
         inkscape:connector-curvature="0"
         id="path3392"
         d="m 55.984,9.698 0,186.711 491.811,0 0,-153.521 L 55.984,9.698 m 347.311,116.554 c -6.69,0 -12.114,-5.17 -12.114,-11.547 0,-6.378 5.424,-11.548 12.114,-11.548 6.691,0 12.114,5.17 12.114,11.548 0,6.377 -5.423,11.547 -12.114,11.547" />
    </clipPath>
    <clipPath
       id="clipPath3402"
       clipPathUnits="userSpaceOnUse">
      <path
         inkscape:connector-curvature="0"
         id="path3404"
         d="m 548.387,197.042 -35.712,0 0,-187.776 35.712,0 0,187.776 z" />
    </clipPath>
    <clipPath
       id="clipPath3408"
       clipPathUnits="userSpaceOnUse">
      <path
         inkscape:connector-curvature="0"
         id="path3410"
         d="m 55.984,9.698 0,186.711 491.811,0 0,-153.521 L 55.984,9.698 m 347.311,116.554 c -6.69,0 -12.114,-5.17 -12.114,-11.547 0,-6.378 5.424,-11.548 12.114,-11.548 6.691,0 12.114,5.17 12.114,11.548 0,6.377 -5.423,11.547 -12.114,11.547" />
    </clipPath>
    <clipPath
       id="clipPath3420"
       clipPathUnits="userSpaceOnUse">
      <path
         inkscape:connector-curvature="0"
         id="path3422"
         d="m 403.295,103.157 c -6.69,0 -12.114,5.17 -12.114,11.548 0,6.377 5.424,11.547 12.114,11.547 6.691,0 12.114,-5.17 12.114,-11.547 0,-6.378 -5.423,-11.548 -12.114,-11.548" />
    </clipPath>
    <clipPath
       id="clipPath3450"
       clipPathUnits="userSpaceOnUse">
      <path
         inkscape:connector-curvature="0"
         id="path3452"
         d="m 0,841.98 595.2,0 0,-841.87 -595.2,0 0,841.87 z" />
    </clipPath>
    <clipPath
       id="clipPath3466"
       clipPathUnits="userSpaceOnUse">
      <path
         inkscape:connector-curvature="0"
         id="path3468"
         d="m 106.341,710.291 -17.607,61.405 126.551,36.288 19.519,-68.07 -128.463,-29.623" />
    </clipPath>
    <clipPath
       id="clipPath3472"
       clipPathUnits="userSpaceOnUse">
      <path
         inkscape:connector-curvature="0"
         id="path3474"
         d="M 117.228,672.325 88.734,771.696 215.285,807.984 243.78,708.613 117.228,672.325" />
    </clipPath>
    <clipPath
       id="clipPath3484"
       clipPathUnits="userSpaceOnUse">
      <path
         inkscape:connector-curvature="0"
         id="path3486"
         d="m 117.228,672.325 -10.887,37.966 128.463,29.623 8.976,-31.301 -126.552,-36.288" />
    </clipPath>
    <clipPath
       id="clipPath3490"
       clipPathUnits="userSpaceOnUse">
      <path
         inkscape:connector-curvature="0"
         id="path3492"
         d="M 117.228,672.325 88.734,771.696 215.285,807.984 243.78,708.613 117.228,672.325" />
    </clipPath>
    <clipPath
       id="clipPath3504"
       clipPathUnits="userSpaceOnUse">
      <path
         inkscape:connector-curvature="0"
         id="path3506"
         d="m 512.395,252.333 -191.236,0 0,20.592 191.236,0 0,-20.592" />
    </clipPath>
    <clipPath
       id="clipPath3520"
       clipPathUnits="userSpaceOnUse">
      <path
         inkscape:connector-curvature="0"
         id="path3522"
         d="m 512.395,252.333 -191.236,0 0,20.592 191.236,0 0,-20.592" />
    </clipPath>
    <clipPath
       id="clipPath3536"
       clipPathUnits="userSpaceOnUse">
      <path
         inkscape:connector-curvature="0"
         id="path3538"
         d="m 512.395,252.333 -191.236,0 0,20.592 191.236,0 0,-20.592" />
    </clipPath>
    <clipPath
       id="clipPath3558"
       clipPathUnits="userSpaceOnUse">
      <path
         inkscape:connector-curvature="0"
         id="path3560"
         d="m 551.187,226.87 -231.108,0 0,17.183 231.108,0 0,-17.183" />
    </clipPath>
    <clipPath
       id="clipPath3574"
       clipPathUnits="userSpaceOnUse">
      <path
         inkscape:connector-curvature="0"
         id="path3576"
         d="m 551.187,226.87 -231.108,0 0,17.183 231.108,0 0,-17.183" />
    </clipPath>
  </defs>
  <sodipodi:namedview
     id="base"
     pagecolor="#ffffff"
     bordercolor="#666666"
     borderopacity="1.0"
     inkscape:pageopacity="0.0"
     inkscape:pageshadow="2"
     inkscape:zoom="0.7"
     inkscape:cx="375"
     inkscape:cy="520"
     inkscape:document-units="px"
     inkscape:current-layer="g3344"
     showgrid="false"
     inkscape:window-width="1920"
     inkscape:window-height="1017"
     inkscape:window-x="-8"
     inkscape:window-y="-8"
     inkscape:window-maximized="1" />
  <metadata
     id="metadata7">
    <rdf:RDF>
      <cc:Work
         rdf:about="">
        <dc:format>image/svg+xml</dc:format>
        <dc:type
           rdf:resource="http://purl.org/dc/dcmitype/StillImage" />
        <dc:title></dc:title>
      </cc:Work>
    </rdf:RDF>
  </metadata>
  <g
     inkscape:label="Layer 1"
     inkscape:groupmode="layer"
     id="layer1">
    <g
       transform="matrix(1.25,0,0,-1.25,5.1428586,1058.6684)"
       inkscape:label="Legatus 20 sept"
       id="g3344">
      <g
         id="g3346"
         transform="translate(-3.4285725,3.4285714)">
        <g
           clip-path="url(#clipPath3350)"
           id="g3348">
          <path
             inkscape:connector-curvature="0"
             id="path3354"
             style="fill:#00babd;fill-opacity:1;fill-rule:nonzero;stroke:none"
             d="m 0,0.10999 595.2,0 0,841.87 -595.2,0 0,-841.87 z" />
          <g
             transform="translate(65.19,700.802)"
             id="g3356">
            <path
               inkscape:connector-curvature="0"
               id="path3358"
               style="fill:#87d1d4;fill-opacity:1;fill-rule:nonzero;stroke:none"
               d="M 0,0 -33.874,-692.768 530.841,-654.659 467.288,107.754 0,0" />
          </g>
        </g>
      </g>
    </g>
  </g>
</svg>
